<svg width="20" height="16" viewBox="0 0 20 16" fill="none" xmlns="http://www.w3.org/2000/svg">
<g id="Group">
<g id="Layer_4">
<path id="Path" d="M20 8.00007C20 8.55235 19.5523 9.00007 19 9.00007H3.17L7.76 14.3501C8.11899 14.7698 8.06974 15.4011 7.65 15.7601C7.23026 16.1191 6.59898 16.0698 6.24 15.6501L0.24 8.65007C0.204176 8.60023 0.173992 8.54657 0.15 8.49007C0.119902 8.45247 0.0931343 8.41231 0.07 8.37007C0.0266703 8.25137 0.00302553 8.12639 0 8.00007C0.00302553 7.87375 0.0266703 7.74877 0.07 7.63007C0.0931343 7.58782 0.119902 7.54767 0.15 7.51007C0.173992 7.45357 0.204176 7.39991 0.24 7.35007L6.24 0.350069C6.59898 -0.0696678 7.23026 -0.118916 7.65 0.240069C8.06974 0.599054 8.11899 1.23033 7.76 1.65007L3.17 7.00007H19C19.5523 7.00007 20 7.44778 20 8.00007Z" fill="#231F20"/>
</g>
</g>
</svg>
