<svg width="13" height="13" viewBox="0 0 13 13" fill="none" xmlns="http://www.w3.org/2000/svg">
<g id="Group">
<g id="Layer_111">
<path id="Shape" fill-rule="evenodd" clip-rule="evenodd" d="M12.3066 5.76374L0.919992 0.0704295C0.691027 -0.0477103 0.413289 -0.0151824 0.217818 0.152666C0.0231515 0.321732 -0.0494273 0.592025 0.0343668 0.835863L1.90051 6.32674L0.0659963 11.8176C0.00220132 12.0058 0.0305037 12.213 0.142423 12.3771C0.254342 12.5413 0.436875 12.6433 0.635327 12.6526C0.734354 12.652 0.831858 12.6282 0.919992 12.583L12.3066 6.88974C12.5179 6.78151 12.6508 6.56411 12.6508 6.32674C12.6508 6.08937 12.5179 5.87197 12.3066 5.76374ZM1.71707 10.7549L2.98225 6.95933H9.30815L1.71707 10.7549ZM1.71707 1.89869L2.98225 5.69423H9.33978L1.71707 1.89869Z" fill="#231F20"/>
</g>
</g>
</svg>
