<svg width="18" height="18" viewBox="0 0 18 18" fill="none" xmlns="http://www.w3.org/2000/svg">
<g id="Group">
<g id="Layer_65">
<path id="Path" d="M17.0917 15.9082C17.2495 16.0647 17.3382 16.2776 17.3382 16.4998C17.3382 16.722 17.2495 16.935 17.0917 17.0915C16.9352 17.2493 16.7222 17.338 16.5 17.338C16.2778 17.338 16.0648 17.2493 15.9084 17.0915L9.00003 10.1748L2.0917 17.0915C1.93523 17.2493 1.72223 17.338 1.50003 17.338C1.27783 17.338 1.06484 17.2493 0.908364 17.0915C0.750603 16.935 0.661865 16.722 0.661865 16.4998C0.661865 16.2776 0.750603 16.0647 0.908364 15.9082L7.82503 8.99985L0.908364 2.09151C0.696982 1.88013 0.614428 1.57204 0.691799 1.28328C0.76917 0.99453 0.994712 0.768988 1.28347 0.691616C1.57222 0.614245 1.88032 0.696799 2.0917 0.908181L9.00003 7.82485L15.9084 0.908181C16.2351 0.581413 16.7649 0.581413 17.0917 0.908181C17.4185 1.23495 17.4185 1.76475 17.0917 2.09151L10.175 8.99985L17.0917 15.9082Z" fill="#231F20"/>
</g>
</g>
</svg>
