<svg width="38" height="26" viewBox="0 0 38 26" fill="none" xmlns="http://www.w3.org/2000/svg">
<path id="Vector" d="M2.87858 22.0136L1.30443 23.5946C1.00843 23.0676 0.833496 22.446 0.833496 21.7838V4.21599C0.833496 3.55384 1.0084 2.93216 1.30443 2.40515L11.8528 12.9999L2.87858 22.0136ZM37.3893 2.44571L36.6225 3.20248L26.8409 13.027L37.3626 23.595C37.6586 23.0679 37.8335 22.4463 37.8335 21.7841V4.21633C37.8335 3.56767 37.6719 2.97277 37.3893 2.44571ZM4.30455 2.55382L18.1763 16.4866C18.8221 17.1352 19.8985 17.1487 20.5577 16.4866L24.6613 12.3649C24.6613 12.3649 24.6882 12.3244 24.7017 12.3108L35.963 0.999985C35.4248 0.675656 34.7924 0.5 34.1332 0.5H4.53323C3.87398 0.5 3.25503 0.675678 2.73033 0.973001L4.30455 2.55382ZM34.3618 23.4458L25.4146 14.4593L21.9837 17.9188C21.2571 18.635 20.3153 18.9999 19.36 18.9999C18.4047 18.9999 17.463 18.635 16.7498 17.9188L13.2786 14.4323L2.73022 25.027C3.25497 25.3243 3.87383 25.5 4.53313 25.5H34.1331C34.7923 25.5 35.4113 25.3243 35.936 25.027L34.3618 23.4458Z" fill="#9E9E9E"/>
</svg>
