<svg width="16" height="16" viewBox="0 0 16 16" fill="none" xmlns="http://www.w3.org/2000/svg">
<g id="Group">
<g id="Layer_111">
<path id="Shape" fill-rule="evenodd" clip-rule="evenodd" d="M15.5647 7.28858L1.16356 0.0890622C0.873974 -0.0603325 0.522705 -0.019199 0.275484 0.193055C0.0292807 0.406849 -0.062513 0.748651 0.0434653 1.057L2.40366 8.00053L0.0834686 14.9441C0.00278412 15.182 0.0385795 15.444 0.180129 15.6516C0.321678 15.8592 0.552536 15.9882 0.803527 16C0.928771 15.9992 1.05209 15.9691 1.16356 15.912L15.5647 8.71249C15.8319 8.57562 16 8.30071 16 8.00053C16 7.70036 15.8319 7.42545 15.5647 7.28858ZM2.17163 13.5997L3.77176 8.80005H11.7724L2.17163 13.5997ZM2.17163 2.40069L3.77176 7.20037H11.8124L2.17163 2.40069Z" fill="#4C7B98"/>
</g>
</g>
</svg>
