<svg width="16" height="16" viewBox="0 0 16 16" fill="none" xmlns="http://www.w3.org/2000/svg">
<g id="Group">
<g id="Layer_111">
<path id="Shape" fill-rule="evenodd" clip-rule="evenodd" d="M15.5647 7.28966L1.16356 0.0890755C0.873974 -0.0603414 0.522705 -0.0192019 0.275484 0.193084C0.0292807 0.406909 -0.062513 0.748762 0.0434653 1.05715L2.40366 8.00172L0.0834686 14.9463C0.00278412 15.1843 0.0385795 15.4463 0.180129 15.6539C0.321678 15.8615 0.552536 15.9906 0.803527 16.0024C0.928771 16.0016 1.05209 15.9715 1.16356 15.9144L15.5647 8.71378C15.8319 8.57689 16 8.30194 16 8.00172C16 7.7015 15.8319 7.42655 15.5647 7.28966ZM2.17162 13.6017L3.77175 8.80135H11.7724L2.17162 13.6017ZM2.17162 2.40104L3.77175 7.20143H11.8124L2.17162 2.40104Z" fill="#4C7B9A"/>
</g>
</g>
</svg>
