<svg width="33" height="34" viewBox="0 0 33 34" fill="none" xmlns="http://www.w3.org/2000/svg">
<g id="Group">
<g id="Layer_25">
<path id="Path" d="M32.045 13.6455L29.4167 11.2546L28.055 10.083L17.795 0.97879C17.1973 0.453684 16.3028 0.453684 15.705 0.97879L5.44504 10.083L4.08337 11.2546L1.45504 13.6455C0.843736 14.2326 0.803262 15.197 1.36322 15.8334C1.92317 16.4697 2.88492 16.5521 3.54504 16.0205L4.08337 15.5455V29.083C4.08337 31.7063 6.21002 33.833 8.83337 33.833H12V24.333C12 21.7096 14.1267 19.583 16.75 19.583C19.3734 19.583 21.5 21.7096 21.5 24.333V33.833H24.6667C27.2901 33.833 29.4167 31.7063 29.4167 29.083V15.5455L29.955 16.0205C30.6112 16.5967 31.61 16.533 32.1875 15.878C32.7638 15.2218 32.7001 14.223 32.045 13.6455Z" fill="#9E9E9E"/>
</g>
</g>
</svg>
