<svg width="33" height="32" viewBox="0 0 33 32" fill="none" xmlns="http://www.w3.org/2000/svg">
<g id="Group">
<path id="Exclude" fill-rule="evenodd" clip-rule="evenodd" d="M0.416748 16.0241C0.416748 7.68327 7.08258 0.166992 16.2817 0.166992C25.2751 0.166992 32.0834 7.54055 32.0834 15.9765C32.0834 25.7604 24.1034 31.8337 16.2501 31.8337C13.6534 31.8337 10.7717 31.1359 8.46008 29.7722C7.65258 29.2807 6.97175 28.9159 6.10091 29.2014L2.90258 30.1528C2.09508 30.4065 1.36675 29.7722 1.60425 28.9159L2.66508 25.364C2.83925 24.8724 2.80758 24.3491 2.55425 23.9368C1.19258 21.4314 0.416748 18.6881 0.416748 16.0241ZM14.1917 16.0241C14.1917 17.15 15.0942 18.0538 16.2184 18.0697C17.3426 18.0697 18.2451 17.15 18.2451 16.04C18.2451 14.9141 17.3426 14.0103 16.2184 14.0103C15.1101 13.9944 14.1917 14.9141 14.1917 16.0241ZM21.4909 16.04C21.4909 17.15 22.3934 18.0697 23.5176 18.0697C24.6417 18.0697 25.5442 17.15 25.5442 16.04C25.5442 14.9141 24.6417 14.0103 23.5176 14.0103C22.3934 14.0103 21.4909 14.9141 21.4909 16.04ZM8.91925 18.0697C7.81091 18.0697 6.89258 17.15 6.89258 16.04C6.89258 14.9141 7.79508 14.0103 8.91925 14.0103C10.0434 14.0103 10.9459 14.9141 10.9459 16.04C10.9459 17.15 10.0434 18.0538 8.91925 18.0697Z" fill="#4C7B98"/>
</g>
</svg>
