<svg width="24" height="26" viewBox="0 0 24 26" fill="none" xmlns="http://www.w3.org/2000/svg">
<g id="Group 48095354">
<path id="Vector" d="M11.9853 0C7.56498 0 3.96682 3.47521 3.96682 7.74445C3.96682 10.3544 5.2977 12.7365 7.54654 14.1821C3.01935 15.9304 0 20.2068 0 24.9354C0 25.5229 0.494009 26 1.1023 26C1.7106 26 2.20461 25.5229 2.20461 24.9354C2.20461 19.7261 6.59171 15.4925 11.9816 15.4925C16.4018 15.4925 20 12.0173 20 7.74801C20 3.47877 16.4018 0.00356075 11.9816 0.00356075L11.9853 0Z" fill="#4C7B9A"/>
<path id="Vector_2" d="M20.095 17.2843C19.6315 16.9052 18.8234 16.9052 18.3599 17.2843C17.88 17.6768 17.88 18.3109 18.3599 18.7034C20.415 20.3841 21.5471 22.6184 21.5471 24.9969C21.5471 25.5505 22.0967 26 22.7735 26C23.4503 26 24 25.5505 24 24.9969C24 22.085 22.6136 19.3441 20.095 17.2843Z" fill="#4C7B9A"/>
</g>
</svg>
