<svg width="28" height="29" viewBox="0 0 28 29" fill="none" xmlns="http://www.w3.org/2000/svg">
<g id="Iconly/Curved/Bold/Send">
<path id="Vector" fill-rule="evenodd" clip-rule="evenodd" d="M25.0433 3.69848C24.9885 3.59581 24.9057 3.51181 24.803 3.45698C22.3693 2.16198 7.8105 6.67465 4.0445 8.84698C3.06333 9.41281 2.62583 10.0778 2.746 10.8198C3.0925 12.9688 8.88267 14.5975 12.0245 15.3266L17.9243 9.42798C18.2662 9.08615 18.8203 9.08615 19.1622 9.42798C19.504 9.76981 19.504 10.324 19.1622 10.6658L13.2052 16.6205C13.953 19.795 15.5642 25.4125 17.6793 25.7531C17.7587 25.766 17.838 25.773 17.9162 25.773C18.5625 25.773 19.1458 25.3296 19.651 24.4546C21.8233 20.6921 26.3395 6.13565 25.0433 3.69848Z" fill="white"/>
</g>
</svg>
