<svg width="22" height="22" viewBox="0 0 22 22" fill="none" xmlns="http://www.w3.org/2000/svg">
<g id="Group">
<g id="Layer_111">
<path id="Shape" fill-rule="evenodd" clip-rule="evenodd" d="M21.0618 9.86417L1.57449 0.120534C1.18264 -0.0816524 0.707311 -0.0259835 0.372778 0.261276C0.0396219 0.550618 -0.0845908 1.0132 0.058816 1.43051L3.25256 10.8277L0.112947 20.2249C0.00376739 20.5469 0.0522047 20.9015 0.243745 21.1824C0.435286 21.4634 0.747676 21.638 1.08731 21.654C1.25679 21.653 1.42366 21.6122 1.57449 21.5349L21.0618 11.7912C21.4233 11.606 21.6508 11.234 21.6508 10.8277C21.6508 10.4215 21.4233 10.0494 21.0618 9.86417ZM2.93858 18.4055L5.10383 11.9097H15.9301L2.93858 18.4055ZM2.93858 3.24902L5.10383 9.74478H15.9842L2.93858 3.24902Z" fill="white"/>
</g>
</g>
</svg>
